<mxfile host="app.diagrams.net" modified="2022-12-04T10:34:40.058Z" agent="5.0 (Windows NT 10.0; Win64; x64) AppleWebKit/537.36 (KHTML, like Gecko) Chrome/108.0.0.0 Safari/537.36" etag="OqgmqyDMAayA8SPSOLLt" version="20.6.0" type="github">
  <diagram id="C5RBs43oDa-KdzZeNtuy" name="Page-1">
    <mxGraphModel dx="2858" dy="1134" grid="1" gridSize="10" guides="1" tooltips="1" connect="1" arrows="1" fold="1" page="1" pageScale="1" pageWidth="827" pageHeight="1169" background="#114B5F" math="0" shadow="0">
      <root>
        <mxCell id="WIyWlLk6GJQsqaUBKTNV-0" />
        <mxCell id="WIyWlLk6GJQsqaUBKTNV-1" parent="WIyWlLk6GJQsqaUBKTNV-0" />
        <mxCell id="7zjRcnEj8naGAS1KM2nz-27" style="edgeStyle=orthogonalEdgeStyle;rounded=0;orthogonalLoop=1;jettySize=auto;html=1;exitX=0.75;exitY=1;exitDx=0;exitDy=0;entryX=0.5;entryY=0;entryDx=0;entryDy=0;strokeColor=#028090;fontColor=#FFFFFF;endArrow=classic;endFill=1;fillColor=#F45B69;" edge="1" parent="WIyWlLk6GJQsqaUBKTNV-1" source="WIyWlLk6GJQsqaUBKTNV-3" target="7zjRcnEj8naGAS1KM2nz-22">
          <mxGeometry relative="1" as="geometry">
            <Array as="points">
              <mxPoint x="-380" y="60" />
              <mxPoint x="-380" y="140" />
              <mxPoint x="-209" y="140" />
            </Array>
          </mxGeometry>
        </mxCell>
        <mxCell id="7zjRcnEj8naGAS1KM2nz-28" style="edgeStyle=orthogonalEdgeStyle;rounded=0;orthogonalLoop=1;jettySize=auto;html=1;exitX=0.25;exitY=1;exitDx=0;exitDy=0;entryX=0.5;entryY=0;entryDx=0;entryDy=0;strokeColor=#028090;fontColor=#FFFFFF;endArrow=classic;endFill=1;fillColor=#F45B69;" edge="1" parent="WIyWlLk6GJQsqaUBKTNV-1" source="WIyWlLk6GJQsqaUBKTNV-3" target="7zjRcnEj8naGAS1KM2nz-4">
          <mxGeometry relative="1" as="geometry">
            <Array as="points">
              <mxPoint x="-443" y="50" />
              <mxPoint x="-430" y="50" />
              <mxPoint x="-430" y="140" />
              <mxPoint x="-618" y="140" />
            </Array>
          </mxGeometry>
        </mxCell>
        <mxCell id="WIyWlLk6GJQsqaUBKTNV-3" value="Alert page 활성화" style="rounded=1;whiteSpace=wrap;html=1;fontSize=12;glass=0;strokeWidth=1;shadow=0;fillColor=#F45B69;strokeColor=#028090;fontColor=#E4FDE1;" parent="WIyWlLk6GJQsqaUBKTNV-1" vertex="1">
          <mxGeometry x="-473" y="20" width="120" height="40" as="geometry" />
        </mxCell>
        <mxCell id="7zjRcnEj8naGAS1KM2nz-73" value="" style="edgeStyle=orthogonalEdgeStyle;rounded=0;orthogonalLoop=1;jettySize=auto;html=1;strokeColor=#028090;fontColor=#FFFFFF;endArrow=classic;endFill=1;fillColor=#F45B69;startArrow=none;" edge="1" parent="WIyWlLk6GJQsqaUBKTNV-1" source="7zjRcnEj8naGAS1KM2nz-74" target="7zjRcnEj8naGAS1KM2nz-72">
          <mxGeometry relative="1" as="geometry" />
        </mxCell>
        <mxCell id="7zjRcnEj8naGAS1KM2nz-77" value="" style="edgeStyle=orthogonalEdgeStyle;rounded=0;orthogonalLoop=1;jettySize=auto;html=1;strokeColor=#028090;fontColor=#FFFFFF;endArrow=classic;endFill=1;fillColor=#F45B69;startArrow=none;" edge="1" parent="WIyWlLk6GJQsqaUBKTNV-1" source="7zjRcnEj8naGAS1KM2nz-78" target="7zjRcnEj8naGAS1KM2nz-76">
          <mxGeometry relative="1" as="geometry" />
        </mxCell>
        <mxCell id="WIyWlLk6GJQsqaUBKTNV-6" value="알람이력&lt;br&gt;존재여부" style="rhombus;whiteSpace=wrap;html=1;shadow=0;fontFamily=Helvetica;fontSize=12;align=center;strokeWidth=1;spacing=6;spacingTop=-4;fillColor=#6d8764;strokeColor=#3A5431;fontColor=#ffffff;rounded=1;" parent="WIyWlLk6GJQsqaUBKTNV-1" vertex="1">
          <mxGeometry x="-490" y="520" width="100" height="90" as="geometry" />
        </mxCell>
        <mxCell id="7zjRcnEj8naGAS1KM2nz-63" value="" style="edgeStyle=orthogonalEdgeStyle;rounded=0;orthogonalLoop=1;jettySize=auto;html=1;strokeColor=#028090;fontColor=#FFFFFF;endArrow=classic;endFill=1;fillColor=#F45B69;exitX=0.998;exitY=0.376;exitDx=0;exitDy=0;exitPerimeter=0;" edge="1" parent="WIyWlLk6GJQsqaUBKTNV-1" source="7zjRcnEj8naGAS1KM2nz-76" target="7zjRcnEj8naGAS1KM2nz-62">
          <mxGeometry relative="1" as="geometry">
            <mxPoint x="-440" y="724" as="sourcePoint" />
          </mxGeometry>
        </mxCell>
        <mxCell id="7zjRcnEj8naGAS1KM2nz-10" value="" style="edgeStyle=orthogonalEdgeStyle;rounded=0;orthogonalLoop=1;jettySize=auto;html=1;strokeColor=#028090;fontColor=#FFFFFF;fillColor=#F45B69;entryX=0.5;entryY=0;entryDx=0;entryDy=0;exitX=0.5;exitY=1;exitDx=0;exitDy=0;startArrow=none;" edge="1" parent="WIyWlLk6GJQsqaUBKTNV-1" source="7zjRcnEj8naGAS1KM2nz-11" target="7zjRcnEj8naGAS1KM2nz-9">
          <mxGeometry relative="1" as="geometry">
            <mxPoint x="-396" y="646.9999999999999" as="targetPoint" />
          </mxGeometry>
        </mxCell>
        <mxCell id="7zjRcnEj8naGAS1KM2nz-4" value="TreeSelect&lt;br&gt;선택값 여부" style="rhombus;whiteSpace=wrap;html=1;fillColor=#6d8764;strokeColor=#3A5431;fontColor=#ffffff;rounded=1;glass=0;strokeWidth=1;shadow=0;aspect=fixed;" vertex="1" parent="WIyWlLk6GJQsqaUBKTNV-1">
          <mxGeometry x="-670" y="160" width="104.17" height="100" as="geometry" />
        </mxCell>
        <mxCell id="7zjRcnEj8naGAS1KM2nz-55" style="edgeStyle=orthogonalEdgeStyle;rounded=0;orthogonalLoop=1;jettySize=auto;html=1;exitX=0.5;exitY=1;exitDx=0;exitDy=0;strokeColor=#028090;fontColor=#FFFFFF;endArrow=classic;endFill=1;fillColor=#F45B69;" edge="1" parent="WIyWlLk6GJQsqaUBKTNV-1" source="7zjRcnEj8naGAS1KM2nz-6" target="WIyWlLk6GJQsqaUBKTNV-6">
          <mxGeometry relative="1" as="geometry">
            <Array as="points">
              <mxPoint x="-533" y="480" />
              <mxPoint x="-440" y="480" />
            </Array>
          </mxGeometry>
        </mxCell>
        <mxCell id="7zjRcnEj8naGAS1KM2nz-6" value="모든 알람 이력 호출." style="rounded=1;whiteSpace=wrap;html=1;fillColor=#F45B69;strokeColor=#028090;fontColor=#E4FDE1;glass=0;strokeWidth=1;shadow=0;" vertex="1" parent="WIyWlLk6GJQsqaUBKTNV-1">
          <mxGeometry x="-593" y="359" width="120" height="60" as="geometry" />
        </mxCell>
        <mxCell id="7zjRcnEj8naGAS1KM2nz-49" style="edgeStyle=orthogonalEdgeStyle;rounded=0;orthogonalLoop=1;jettySize=auto;html=1;entryX=0.5;entryY=0;entryDx=0;entryDy=0;strokeColor=#028090;fontColor=#FFFFFF;endArrow=classic;endFill=1;fillColor=#F45B69;" edge="1" parent="WIyWlLk6GJQsqaUBKTNV-1" source="7zjRcnEj8naGAS1KM2nz-9" target="WIyWlLk6GJQsqaUBKTNV-6">
          <mxGeometry relative="1" as="geometry">
            <Array as="points">
              <mxPoint x="-710" y="480" />
              <mxPoint x="-440" y="480" />
            </Array>
          </mxGeometry>
        </mxCell>
        <mxCell id="7zjRcnEj8naGAS1KM2nz-9" value="선택된 설비, 모터 하위의 알람 이력 호출." style="rounded=1;whiteSpace=wrap;html=1;fillColor=#F45B69;strokeColor=#028090;fontColor=#E4FDE1;glass=0;strokeWidth=1;shadow=0;" vertex="1" parent="WIyWlLk6GJQsqaUBKTNV-1">
          <mxGeometry x="-780" y="359" width="140" height="60" as="geometry" />
        </mxCell>
        <mxCell id="7zjRcnEj8naGAS1KM2nz-20" value="" style="edgeStyle=orthogonalEdgeStyle;rounded=0;orthogonalLoop=1;jettySize=auto;html=1;strokeColor=#028090;fontColor=#FFFFFF;fillColor=#F45B69;startArrow=none;" edge="1" parent="WIyWlLk6GJQsqaUBKTNV-1" source="7zjRcnEj8naGAS1KM2nz-24" target="7zjRcnEj8naGAS1KM2nz-23">
          <mxGeometry relative="1" as="geometry" />
        </mxCell>
        <mxCell id="7zjRcnEj8naGAS1KM2nz-21" value="" style="edgeStyle=orthogonalEdgeStyle;rounded=0;orthogonalLoop=1;jettySize=auto;html=1;strokeColor=#028090;fontColor=#FFFFFF;fillColor=#F45B69;entryX=0.5;entryY=0;entryDx=0;entryDy=0;exitX=0.5;exitY=1;exitDx=0;exitDy=0;startArrow=none;" edge="1" parent="WIyWlLk6GJQsqaUBKTNV-1" source="7zjRcnEj8naGAS1KM2nz-26" target="7zjRcnEj8naGAS1KM2nz-25">
          <mxGeometry relative="1" as="geometry">
            <mxPoint x="-396" y="430.9999999999999" as="targetPoint" />
          </mxGeometry>
        </mxCell>
        <mxCell id="7zjRcnEj8naGAS1KM2nz-58" style="edgeStyle=orthogonalEdgeStyle;rounded=0;orthogonalLoop=1;jettySize=auto;html=1;exitX=0.5;exitY=1;exitDx=0;exitDy=0;entryX=0.5;entryY=0;entryDx=0;entryDy=0;strokeColor=#028090;fontColor=#FFFFFF;endArrow=classic;endFill=1;fillColor=#F45B69;" edge="1" parent="WIyWlLk6GJQsqaUBKTNV-1" source="7zjRcnEj8naGAS1KM2nz-23" target="WIyWlLk6GJQsqaUBKTNV-6">
          <mxGeometry relative="1" as="geometry">
            <Array as="points">
              <mxPoint x="-110" y="480" />
              <mxPoint x="-440" y="480" />
            </Array>
          </mxGeometry>
        </mxCell>
        <mxCell id="7zjRcnEj8naGAS1KM2nz-23" value="모든 알람 이력 호출." style="rounded=1;whiteSpace=wrap;html=1;fillColor=#F45B69;strokeColor=#028090;fontColor=#E4FDE1;glass=0;strokeWidth=1;shadow=0;" vertex="1" parent="WIyWlLk6GJQsqaUBKTNV-1">
          <mxGeometry x="-170" y="359" width="120" height="60" as="geometry" />
        </mxCell>
        <mxCell id="7zjRcnEj8naGAS1KM2nz-56" style="edgeStyle=orthogonalEdgeStyle;rounded=0;orthogonalLoop=1;jettySize=auto;html=1;exitX=0.5;exitY=1;exitDx=0;exitDy=0;strokeColor=#028090;fontColor=#FFFFFF;endArrow=classic;endFill=1;fillColor=#F45B69;" edge="1" parent="WIyWlLk6GJQsqaUBKTNV-1" source="7zjRcnEj8naGAS1KM2nz-25" target="WIyWlLk6GJQsqaUBKTNV-6">
          <mxGeometry relative="1" as="geometry">
            <Array as="points">
              <mxPoint x="-312" y="480" />
              <mxPoint x="-440" y="480" />
            </Array>
          </mxGeometry>
        </mxCell>
        <mxCell id="7zjRcnEj8naGAS1KM2nz-25" value="선택된 data 기준으로 filter 된 알람 이력 호출.&lt;br&gt;(타입 or 위험도 or ack or 시간)" style="rounded=1;whiteSpace=wrap;html=1;fillColor=#F45B69;strokeColor=#028090;fontColor=#E4FDE1;glass=0;strokeWidth=1;shadow=0;" vertex="1" parent="WIyWlLk6GJQsqaUBKTNV-1">
          <mxGeometry x="-397" y="360" width="169" height="60" as="geometry" />
        </mxCell>
        <mxCell id="7zjRcnEj8naGAS1KM2nz-29" value="Alert page 첫 렌더링 시,&amp;nbsp;&lt;br&gt;api 호출 parameter 는 기본값." style="text;html=1;align=center;verticalAlign=middle;resizable=0;points=[];autosize=1;strokeColor=#B09500;fillColor=#e3c800;fontColor=#000000;" vertex="1" parent="WIyWlLk6GJQsqaUBKTNV-1">
          <mxGeometry x="-500" y="80" width="180" height="40" as="geometry" />
        </mxCell>
        <mxCell id="7zjRcnEj8naGAS1KM2nz-22" value="Select Button&lt;br&gt;선택값 여부" style="rhombus;whiteSpace=wrap;html=1;fillColor=#6d8764;strokeColor=#3A5431;fontColor=#ffffff;rounded=1;glass=0;strokeWidth=1;shadow=0;" vertex="1" parent="WIyWlLk6GJQsqaUBKTNV-1">
          <mxGeometry x="-259" y="160" width="100" height="100" as="geometry" />
        </mxCell>
        <mxCell id="7zjRcnEj8naGAS1KM2nz-11" value="YES" style="text;html=1;align=center;verticalAlign=middle;resizable=0;points=[];autosize=1;strokeColor=none;fillColor=none;fontColor=#FFFFFF;" vertex="1" parent="WIyWlLk6GJQsqaUBKTNV-1">
          <mxGeometry x="-735" y="290" width="50" height="30" as="geometry" />
        </mxCell>
        <mxCell id="7zjRcnEj8naGAS1KM2nz-41" value="" style="edgeStyle=orthogonalEdgeStyle;rounded=0;orthogonalLoop=1;jettySize=auto;html=1;strokeColor=#028090;fontColor=#FFFFFF;fillColor=#F45B69;entryX=0.5;entryY=0;entryDx=0;entryDy=0;exitX=0.5;exitY=1;exitDx=0;exitDy=0;endArrow=none;" edge="1" parent="WIyWlLk6GJQsqaUBKTNV-1" source="7zjRcnEj8naGAS1KM2nz-4" target="7zjRcnEj8naGAS1KM2nz-11">
          <mxGeometry relative="1" as="geometry">
            <mxPoint x="-617.915" y="260" as="sourcePoint" />
            <mxPoint x="-618" y="425" as="targetPoint" />
            <Array as="points">
              <mxPoint x="-618" y="270" />
              <mxPoint x="-710" y="270" />
            </Array>
          </mxGeometry>
        </mxCell>
        <mxCell id="7zjRcnEj8naGAS1KM2nz-43" style="edgeStyle=orthogonalEdgeStyle;rounded=0;orthogonalLoop=1;jettySize=auto;html=1;entryX=0.5;entryY=0;entryDx=0;entryDy=0;strokeColor=#028090;fontColor=#FFFFFF;endArrow=classic;endFill=1;fillColor=#F45B69;" edge="1" parent="WIyWlLk6GJQsqaUBKTNV-1" source="7zjRcnEj8naGAS1KM2nz-8" target="7zjRcnEj8naGAS1KM2nz-6">
          <mxGeometry relative="1" as="geometry" />
        </mxCell>
        <mxCell id="7zjRcnEj8naGAS1KM2nz-8" value="NO" style="text;html=1;align=center;verticalAlign=middle;resizable=0;points=[];autosize=1;strokeColor=none;fillColor=none;fontColor=#FFFFFF;" vertex="1" parent="WIyWlLk6GJQsqaUBKTNV-1">
          <mxGeometry x="-553" y="289" width="40" height="30" as="geometry" />
        </mxCell>
        <mxCell id="7zjRcnEj8naGAS1KM2nz-42" value="" style="edgeStyle=orthogonalEdgeStyle;rounded=0;orthogonalLoop=1;jettySize=auto;html=1;strokeColor=#028090;fontColor=#FFFFFF;fillColor=#F45B69;startArrow=none;exitX=1;exitY=0.5;exitDx=0;exitDy=0;endArrow=none;" edge="1" parent="WIyWlLk6GJQsqaUBKTNV-1" source="7zjRcnEj8naGAS1KM2nz-4" target="7zjRcnEj8naGAS1KM2nz-8">
          <mxGeometry relative="1" as="geometry">
            <mxPoint x="-565.8299999999999" y="210" as="sourcePoint" />
            <mxPoint x="-532.9787234042554" y="359" as="targetPoint" />
          </mxGeometry>
        </mxCell>
        <mxCell id="7zjRcnEj8naGAS1KM2nz-24" value="NO" style="text;html=1;align=center;verticalAlign=middle;resizable=0;points=[];autosize=1;strokeColor=none;fillColor=none;fontColor=#FFFFFF;" vertex="1" parent="WIyWlLk6GJQsqaUBKTNV-1">
          <mxGeometry x="-130" y="289" width="40" height="30" as="geometry" />
        </mxCell>
        <mxCell id="7zjRcnEj8naGAS1KM2nz-44" value="" style="edgeStyle=orthogonalEdgeStyle;rounded=0;orthogonalLoop=1;jettySize=auto;html=1;strokeColor=#028090;fontColor=#FFFFFF;fillColor=#F45B69;endArrow=none;" edge="1" parent="WIyWlLk6GJQsqaUBKTNV-1" source="7zjRcnEj8naGAS1KM2nz-22" target="7zjRcnEj8naGAS1KM2nz-24">
          <mxGeometry relative="1" as="geometry">
            <mxPoint x="-159" y="210" as="sourcePoint" />
            <mxPoint x="-50" y="285" as="targetPoint" />
          </mxGeometry>
        </mxCell>
        <mxCell id="7zjRcnEj8naGAS1KM2nz-26" value="YES" style="text;html=1;align=center;verticalAlign=middle;resizable=0;points=[];autosize=1;strokeColor=none;fillColor=none;fontColor=#FFFFFF;" vertex="1" parent="WIyWlLk6GJQsqaUBKTNV-1">
          <mxGeometry x="-337" y="290" width="50" height="30" as="geometry" />
        </mxCell>
        <mxCell id="7zjRcnEj8naGAS1KM2nz-45" value="" style="edgeStyle=orthogonalEdgeStyle;rounded=0;orthogonalLoop=1;jettySize=auto;html=1;strokeColor=#028090;fontColor=#FFFFFF;fillColor=#F45B69;entryX=0.5;entryY=0.1;entryDx=0;entryDy=0;exitX=0.5;exitY=1;exitDx=0;exitDy=0;endArrow=none;entryPerimeter=0;" edge="1" parent="WIyWlLk6GJQsqaUBKTNV-1" source="7zjRcnEj8naGAS1KM2nz-22" target="7zjRcnEj8naGAS1KM2nz-26">
          <mxGeometry relative="1" as="geometry">
            <mxPoint x="-293" y="425" as="targetPoint" />
            <mxPoint x="-209" y="260" as="sourcePoint" />
            <Array as="points">
              <mxPoint x="-209" y="270" />
              <mxPoint x="-312" y="270" />
            </Array>
          </mxGeometry>
        </mxCell>
        <mxCell id="7zjRcnEj8naGAS1KM2nz-65" value="" style="edgeStyle=orthogonalEdgeStyle;rounded=0;orthogonalLoop=1;jettySize=auto;html=1;strokeColor=#028090;fontColor=#FFFFFF;endArrow=classic;endFill=1;fillColor=#F45B69;startArrow=none;" edge="1" parent="WIyWlLk6GJQsqaUBKTNV-1" source="7zjRcnEj8naGAS1KM2nz-66" target="7zjRcnEj8naGAS1KM2nz-64">
          <mxGeometry relative="1" as="geometry" />
        </mxCell>
        <mxCell id="7zjRcnEj8naGAS1KM2nz-69" value="" style="edgeStyle=orthogonalEdgeStyle;rounded=0;orthogonalLoop=1;jettySize=auto;html=1;strokeColor=#028090;fontColor=#FFFFFF;endArrow=classic;endFill=1;fillColor=#F45B69;startArrow=none;" edge="1" parent="WIyWlLk6GJQsqaUBKTNV-1" source="7zjRcnEj8naGAS1KM2nz-70" target="7zjRcnEj8naGAS1KM2nz-68">
          <mxGeometry relative="1" as="geometry" />
        </mxCell>
        <mxCell id="7zjRcnEj8naGAS1KM2nz-62" value="알람이력별&lt;br&gt;Ack 여부" style="rhombus;whiteSpace=wrap;html=1;fillColor=#6d8764;strokeColor=#3A5431;fontColor=#ffffff;shadow=0;strokeWidth=1;spacing=6;spacingTop=-4;rounded=1;" vertex="1" parent="WIyWlLk6GJQsqaUBKTNV-1">
          <mxGeometry x="-362" y="768" width="100" height="100" as="geometry" />
        </mxCell>
        <mxCell id="7zjRcnEj8naGAS1KM2nz-83" value="" style="edgeStyle=orthogonalEdgeStyle;rounded=0;orthogonalLoop=1;jettySize=auto;html=1;strokeColor=#028090;fontColor=#FFFFFF;endArrow=none;endFill=0;fillColor=#F45B69;" edge="1" parent="WIyWlLk6GJQsqaUBKTNV-1" source="7zjRcnEj8naGAS1KM2nz-64" target="7zjRcnEj8naGAS1KM2nz-82">
          <mxGeometry relative="1" as="geometry" />
        </mxCell>
        <mxCell id="7zjRcnEj8naGAS1KM2nz-64" value="[확인] 상태로 표기.&lt;br&gt;버튼클릭 시, 이미 확인했다는 메세지 출력." style="shape=document;whiteSpace=wrap;html=1;boundedLbl=1;fillColor=#76608a;strokeColor=#432D57;fontColor=#ffffff;shadow=0;strokeWidth=1;spacing=6;spacingTop=-4;rounded=1;" vertex="1" parent="WIyWlLk6GJQsqaUBKTNV-1">
          <mxGeometry x="-397" y="949" width="170" height="80" as="geometry" />
        </mxCell>
        <mxCell id="7zjRcnEj8naGAS1KM2nz-66" value="YES" style="text;html=1;align=center;verticalAlign=middle;resizable=0;points=[];autosize=1;strokeColor=none;fillColor=none;fontColor=#FFFFFF;" vertex="1" parent="WIyWlLk6GJQsqaUBKTNV-1">
          <mxGeometry x="-337" y="891" width="50" height="30" as="geometry" />
        </mxCell>
        <mxCell id="7zjRcnEj8naGAS1KM2nz-67" value="" style="edgeStyle=orthogonalEdgeStyle;rounded=0;orthogonalLoop=1;jettySize=auto;html=1;strokeColor=#028090;fontColor=#FFFFFF;endArrow=none;endFill=1;fillColor=#F45B69;" edge="1" parent="WIyWlLk6GJQsqaUBKTNV-1" source="7zjRcnEj8naGAS1KM2nz-62" target="7zjRcnEj8naGAS1KM2nz-66">
          <mxGeometry relative="1" as="geometry">
            <mxPoint x="-312" y="868" as="sourcePoint" />
            <mxPoint x="-312" y="958" as="targetPoint" />
          </mxGeometry>
        </mxCell>
        <mxCell id="7zjRcnEj8naGAS1KM2nz-68" value="[Ack] 상태로 표기.&lt;br&gt;버튼 클릭 시, Ack modal 창 활성화.&amp;nbsp;" style="shape=document;whiteSpace=wrap;html=1;boundedLbl=1;fillColor=#76608a;strokeColor=#432D57;fontColor=#ffffff;shadow=0;strokeWidth=1;spacing=6;spacingTop=-4;rounded=1;" vertex="1" parent="WIyWlLk6GJQsqaUBKTNV-1">
          <mxGeometry x="-189" y="778" width="120" height="80" as="geometry" />
        </mxCell>
        <mxCell id="7zjRcnEj8naGAS1KM2nz-70" value="NO" style="text;html=1;align=center;verticalAlign=middle;resizable=0;points=[];autosize=1;strokeColor=none;fillColor=none;fontColor=#FFFFFF;" vertex="1" parent="WIyWlLk6GJQsqaUBKTNV-1">
          <mxGeometry x="-254" y="803" width="40" height="30" as="geometry" />
        </mxCell>
        <mxCell id="7zjRcnEj8naGAS1KM2nz-71" value="" style="edgeStyle=orthogonalEdgeStyle;rounded=0;orthogonalLoop=1;jettySize=auto;html=1;strokeColor=#028090;fontColor=#FFFFFF;endArrow=none;endFill=1;fillColor=#F45B69;" edge="1" parent="WIyWlLk6GJQsqaUBKTNV-1" source="7zjRcnEj8naGAS1KM2nz-62" target="7zjRcnEj8naGAS1KM2nz-70">
          <mxGeometry relative="1" as="geometry">
            <mxPoint x="-262" y="818" as="sourcePoint" />
            <mxPoint x="-192" y="818" as="targetPoint" />
          </mxGeometry>
        </mxCell>
        <mxCell id="7zjRcnEj8naGAS1KM2nz-72" value="빈페이지 출력.&lt;br&gt;pagination 없음." style="shape=document;whiteSpace=wrap;html=1;boundedLbl=1;fillColor=#76608a;strokeColor=#432D57;fontColor=#ffffff;shadow=0;strokeWidth=1;spacing=6;spacingTop=-4;rounded=1;" vertex="1" parent="WIyWlLk6GJQsqaUBKTNV-1">
          <mxGeometry x="-317" y="537.5" width="120" height="55" as="geometry" />
        </mxCell>
        <mxCell id="7zjRcnEj8naGAS1KM2nz-74" value="NO" style="text;html=1;align=center;verticalAlign=middle;resizable=0;points=[];autosize=1;strokeColor=none;fillColor=none;fontColor=#FFFFFF;" vertex="1" parent="WIyWlLk6GJQsqaUBKTNV-1">
          <mxGeometry x="-377" y="550" width="40" height="30" as="geometry" />
        </mxCell>
        <mxCell id="7zjRcnEj8naGAS1KM2nz-75" value="" style="edgeStyle=orthogonalEdgeStyle;rounded=0;orthogonalLoop=1;jettySize=auto;html=1;strokeColor=#028090;fontColor=#FFFFFF;endArrow=none;endFill=1;fillColor=#F45B69;" edge="1" parent="WIyWlLk6GJQsqaUBKTNV-1" source="WIyWlLk6GJQsqaUBKTNV-6" target="7zjRcnEj8naGAS1KM2nz-74">
          <mxGeometry relative="1" as="geometry">
            <mxPoint x="-390" y="565" as="sourcePoint" />
            <mxPoint x="-317" y="565" as="targetPoint" />
          </mxGeometry>
        </mxCell>
        <mxCell id="7zjRcnEj8naGAS1KM2nz-87" value="" style="edgeStyle=orthogonalEdgeStyle;rounded=0;orthogonalLoop=1;jettySize=auto;html=1;strokeColor=#028090;fontColor=#FFFFFF;endArrow=classic;endFill=1;fillColor=#F45B69;exitX=0.008;exitY=0.402;exitDx=0;exitDy=0;exitPerimeter=0;" edge="1" parent="WIyWlLk6GJQsqaUBKTNV-1" source="7zjRcnEj8naGAS1KM2nz-76" target="7zjRcnEj8naGAS1KM2nz-86">
          <mxGeometry relative="1" as="geometry" />
        </mxCell>
        <mxCell id="7zjRcnEj8naGAS1KM2nz-76" value="한페이지당 8개의 이력 출력.&lt;br&gt;pagination current 1" style="shape=document;whiteSpace=wrap;html=1;boundedLbl=1;fillColor=#76608a;strokeColor=#432D57;fontColor=#ffffff;shadow=0;strokeWidth=1;spacing=6;spacingTop=-4;rounded=1;" vertex="1" parent="WIyWlLk6GJQsqaUBKTNV-1">
          <mxGeometry x="-525" y="680" width="170" height="55" as="geometry" />
        </mxCell>
        <mxCell id="7zjRcnEj8naGAS1KM2nz-78" value="YES" style="text;html=1;align=center;verticalAlign=middle;resizable=0;points=[];autosize=1;strokeColor=none;fillColor=none;fontColor=#FFFFFF;" vertex="1" parent="WIyWlLk6GJQsqaUBKTNV-1">
          <mxGeometry x="-465" y="630" width="50" height="30" as="geometry" />
        </mxCell>
        <mxCell id="7zjRcnEj8naGAS1KM2nz-79" value="" style="edgeStyle=orthogonalEdgeStyle;rounded=0;orthogonalLoop=1;jettySize=auto;html=1;strokeColor=#028090;fontColor=#FFFFFF;endArrow=none;endFill=1;fillColor=#F45B69;" edge="1" parent="WIyWlLk6GJQsqaUBKTNV-1" source="WIyWlLk6GJQsqaUBKTNV-6" target="7zjRcnEj8naGAS1KM2nz-78">
          <mxGeometry relative="1" as="geometry">
            <mxPoint x="-440" y="610" as="sourcePoint" />
            <mxPoint x="-440" y="680" as="targetPoint" />
          </mxGeometry>
        </mxCell>
        <mxCell id="7zjRcnEj8naGAS1KM2nz-82" value="" style="shape=waypoint;sketch=0;size=6;pointerEvents=1;points=[];fillColor=#F45B69;resizable=0;rotatable=0;perimeter=centerPerimeter;snapToPoint=1;strokeColor=#028090;fontColor=#E4FDE1;shadow=0;strokeWidth=1;spacing=6;spacingTop=-4;rounded=1;" vertex="1" parent="WIyWlLk6GJQsqaUBKTNV-1">
          <mxGeometry x="-332" y="1061" width="40" height="40" as="geometry" />
        </mxCell>
        <mxCell id="7zjRcnEj8naGAS1KM2nz-89" value="" style="edgeStyle=orthogonalEdgeStyle;rounded=0;orthogonalLoop=1;jettySize=auto;html=1;strokeColor=#028090;fontColor=#FFFFFF;endArrow=classic;endFill=1;fillColor=#F45B69;startArrow=none;" edge="1" parent="WIyWlLk6GJQsqaUBKTNV-1" source="7zjRcnEj8naGAS1KM2nz-90" target="7zjRcnEj8naGAS1KM2nz-88">
          <mxGeometry relative="1" as="geometry" />
        </mxCell>
        <mxCell id="7zjRcnEj8naGAS1KM2nz-93" value="" style="edgeStyle=orthogonalEdgeStyle;rounded=0;orthogonalLoop=1;jettySize=auto;html=1;strokeColor=#028090;fontColor=#FFFFFF;endArrow=classic;endFill=1;fillColor=#F45B69;startArrow=none;" edge="1" parent="WIyWlLk6GJQsqaUBKTNV-1" source="7zjRcnEj8naGAS1KM2nz-94" target="7zjRcnEj8naGAS1KM2nz-92">
          <mxGeometry relative="1" as="geometry" />
        </mxCell>
        <mxCell id="7zjRcnEj8naGAS1KM2nz-86" value="알람이력&lt;br&gt;클릭 여부" style="rhombus;whiteSpace=wrap;html=1;fillColor=#6d8764;strokeColor=#3A5431;fontColor=#ffffff;shadow=0;strokeWidth=1;spacing=6;spacingTop=-4;rounded=1;" vertex="1" parent="WIyWlLk6GJQsqaUBKTNV-1">
          <mxGeometry x="-760" y="768" width="100" height="100" as="geometry" />
        </mxCell>
        <mxCell id="7zjRcnEj8naGAS1KM2nz-88" value="우측 디테일 카드가&lt;br&gt;빈 상태로 유지.&lt;br&gt;이벤트 비활성화." style="shape=document;whiteSpace=wrap;html=1;boundedLbl=1;fillColor=#76608a;strokeColor=#432D57;fontColor=#ffffff;shadow=0;strokeWidth=1;spacing=6;spacingTop=-4;rounded=1;" vertex="1" parent="WIyWlLk6GJQsqaUBKTNV-1">
          <mxGeometry x="-590" y="778" width="120" height="80" as="geometry" />
        </mxCell>
        <mxCell id="7zjRcnEj8naGAS1KM2nz-90" value="NO" style="text;html=1;align=center;verticalAlign=middle;resizable=0;points=[];autosize=1;strokeColor=none;fillColor=none;fontColor=#FFFFFF;" vertex="1" parent="WIyWlLk6GJQsqaUBKTNV-1">
          <mxGeometry x="-644" y="803" width="40" height="30" as="geometry" />
        </mxCell>
        <mxCell id="7zjRcnEj8naGAS1KM2nz-91" value="" style="edgeStyle=orthogonalEdgeStyle;rounded=0;orthogonalLoop=1;jettySize=auto;html=1;strokeColor=#028090;fontColor=#FFFFFF;endArrow=none;endFill=1;fillColor=#F45B69;" edge="1" parent="WIyWlLk6GJQsqaUBKTNV-1" source="7zjRcnEj8naGAS1KM2nz-86" target="7zjRcnEj8naGAS1KM2nz-90">
          <mxGeometry relative="1" as="geometry">
            <mxPoint x="-660" y="818" as="sourcePoint" />
            <mxPoint x="-590" y="818" as="targetPoint" />
          </mxGeometry>
        </mxCell>
        <mxCell id="7zjRcnEj8naGAS1KM2nz-97" value="" style="edgeStyle=orthogonalEdgeStyle;rounded=0;orthogonalLoop=1;jettySize=auto;html=1;strokeColor=#028090;fontColor=#FFFFFF;endArrow=classic;endFill=1;fillColor=#F45B69;" edge="1" parent="WIyWlLk6GJQsqaUBKTNV-1" source="7zjRcnEj8naGAS1KM2nz-92" target="7zjRcnEj8naGAS1KM2nz-96">
          <mxGeometry relative="1" as="geometry" />
        </mxCell>
        <mxCell id="7zjRcnEj8naGAS1KM2nz-92" value="우측 디테일 카드에&amp;nbsp;&lt;br&gt;클릭한 이력의 상세정보 출력.&lt;br&gt;[그래프 보기] 이벤트 활성화." style="shape=document;whiteSpace=wrap;html=1;boundedLbl=1;fillColor=#76608a;strokeColor=#432D57;fontColor=#ffffff;shadow=0;strokeWidth=1;spacing=6;spacingTop=-4;rounded=1;" vertex="1" parent="WIyWlLk6GJQsqaUBKTNV-1">
          <mxGeometry x="-795" y="940" width="170" height="80" as="geometry" />
        </mxCell>
        <mxCell id="7zjRcnEj8naGAS1KM2nz-94" value="YES" style="text;html=1;align=center;verticalAlign=middle;resizable=0;points=[];autosize=1;strokeColor=none;fillColor=none;fontColor=#FFFFFF;" vertex="1" parent="WIyWlLk6GJQsqaUBKTNV-1">
          <mxGeometry x="-735" y="885" width="50" height="30" as="geometry" />
        </mxCell>
        <mxCell id="7zjRcnEj8naGAS1KM2nz-95" value="" style="edgeStyle=orthogonalEdgeStyle;rounded=0;orthogonalLoop=1;jettySize=auto;html=1;strokeColor=#028090;fontColor=#FFFFFF;endArrow=none;endFill=1;fillColor=#F45B69;" edge="1" parent="WIyWlLk6GJQsqaUBKTNV-1" source="7zjRcnEj8naGAS1KM2nz-86" target="7zjRcnEj8naGAS1KM2nz-94">
          <mxGeometry relative="1" as="geometry">
            <mxPoint x="-710" y="868" as="sourcePoint" />
            <mxPoint x="-710" y="921" as="targetPoint" />
          </mxGeometry>
        </mxCell>
        <mxCell id="7zjRcnEj8naGAS1KM2nz-100" value="" style="edgeStyle=orthogonalEdgeStyle;rounded=0;orthogonalLoop=1;jettySize=auto;html=1;strokeColor=#028090;fontColor=#FFFFFF;endArrow=classic;endFill=1;fillColor=#F45B69;" edge="1" parent="WIyWlLk6GJQsqaUBKTNV-1" source="7zjRcnEj8naGAS1KM2nz-96" target="7zjRcnEj8naGAS1KM2nz-99">
          <mxGeometry relative="1" as="geometry" />
        </mxCell>
        <mxCell id="7zjRcnEj8naGAS1KM2nz-96" value="[그래프 보기] 버튼 클릭 시, 해당 알람이 발생한 시간대의 chart data, realtime data, 과거 알람이력 호출" style="whiteSpace=wrap;html=1;fillColor=#F45B69;strokeColor=#028090;fontColor=#E4FDE1;shadow=0;strokeWidth=1;spacing=6;spacingTop=-4;rounded=1;" vertex="1" parent="WIyWlLk6GJQsqaUBKTNV-1">
          <mxGeometry x="-790" y="1070" width="160" height="80" as="geometry" />
        </mxCell>
        <mxCell id="7zjRcnEj8naGAS1KM2nz-102" value="" style="edgeStyle=orthogonalEdgeStyle;rounded=0;orthogonalLoop=1;jettySize=auto;html=1;strokeColor=#028090;fontColor=#FFFFFF;endArrow=classic;endFill=1;fillColor=#F45B69;startArrow=none;" edge="1" parent="WIyWlLk6GJQsqaUBKTNV-1" source="7zjRcnEj8naGAS1KM2nz-103" target="7zjRcnEj8naGAS1KM2nz-101">
          <mxGeometry relative="1" as="geometry" />
        </mxCell>
        <mxCell id="7zjRcnEj8naGAS1KM2nz-106" value="" style="edgeStyle=orthogonalEdgeStyle;rounded=0;orthogonalLoop=1;jettySize=auto;html=1;strokeColor=#028090;fontColor=#FFFFFF;endArrow=classic;endFill=1;fillColor=#F45B69;startArrow=none;" edge="1" parent="WIyWlLk6GJQsqaUBKTNV-1" source="7zjRcnEj8naGAS1KM2nz-107" target="7zjRcnEj8naGAS1KM2nz-105">
          <mxGeometry relative="1" as="geometry" />
        </mxCell>
        <mxCell id="7zjRcnEj8naGAS1KM2nz-99" value="상단 이력 목록&lt;br&gt;클릭 여부" style="rhombus;whiteSpace=wrap;html=1;fillColor=#6d8764;strokeColor=#3A5431;fontColor=#ffffff;shadow=0;strokeWidth=1;spacing=6;spacingTop=-4;rounded=1;" vertex="1" parent="WIyWlLk6GJQsqaUBKTNV-1">
          <mxGeometry x="-572" y="1210" width="100" height="100" as="geometry" />
        </mxCell>
        <mxCell id="7zjRcnEj8naGAS1KM2nz-101" value="알람페이지 리스트에서 클릭한 알람의 Trend chart, 알람에 관여된 sensor 들의 Realtime chart 출력." style="shape=document;whiteSpace=wrap;html=1;boundedLbl=1;fillColor=#76608a;strokeColor=#432D57;fontColor=#ffffff;shadow=0;strokeWidth=1;spacing=6;spacingTop=-4;rounded=1;" vertex="1" parent="WIyWlLk6GJQsqaUBKTNV-1">
          <mxGeometry x="-387" y="1225" width="200" height="70" as="geometry" />
        </mxCell>
        <mxCell id="7zjRcnEj8naGAS1KM2nz-103" value="NO" style="text;html=1;align=center;verticalAlign=middle;resizable=0;points=[];autosize=1;strokeColor=none;fillColor=none;fontColor=#FFFFFF;" vertex="1" parent="WIyWlLk6GJQsqaUBKTNV-1">
          <mxGeometry x="-455" y="1245" width="40" height="30" as="geometry" />
        </mxCell>
        <mxCell id="7zjRcnEj8naGAS1KM2nz-104" value="" style="edgeStyle=orthogonalEdgeStyle;rounded=0;orthogonalLoop=1;jettySize=auto;html=1;strokeColor=#028090;fontColor=#FFFFFF;endArrow=none;endFill=1;fillColor=#F45B69;" edge="1" parent="WIyWlLk6GJQsqaUBKTNV-1" source="7zjRcnEj8naGAS1KM2nz-99" target="7zjRcnEj8naGAS1KM2nz-103">
          <mxGeometry relative="1" as="geometry">
            <mxPoint x="-472" y="1260" as="sourcePoint" />
            <mxPoint x="-402" y="1260" as="targetPoint" />
          </mxGeometry>
        </mxCell>
        <mxCell id="7zjRcnEj8naGAS1KM2nz-105" value="클릭한 이력에 대한 Trend chart, 이력에 관여된 sensor 들의 Realtime chart 출력." style="shape=document;whiteSpace=wrap;html=1;boundedLbl=1;fillColor=#76608a;strokeColor=#432D57;fontColor=#ffffff;shadow=0;strokeWidth=1;spacing=6;spacingTop=-4;rounded=1;" vertex="1" parent="WIyWlLk6GJQsqaUBKTNV-1">
          <mxGeometry x="-622" y="1400" width="200" height="70" as="geometry" />
        </mxCell>
        <mxCell id="7zjRcnEj8naGAS1KM2nz-107" value="YES" style="text;html=1;align=center;verticalAlign=middle;resizable=0;points=[];autosize=1;strokeColor=none;fillColor=none;fontColor=#FFFFFF;" vertex="1" parent="WIyWlLk6GJQsqaUBKTNV-1">
          <mxGeometry x="-547" y="1335" width="50" height="30" as="geometry" />
        </mxCell>
        <mxCell id="7zjRcnEj8naGAS1KM2nz-108" value="" style="edgeStyle=orthogonalEdgeStyle;rounded=0;orthogonalLoop=1;jettySize=auto;html=1;strokeColor=#028090;fontColor=#FFFFFF;endArrow=none;endFill=1;fillColor=#F45B69;" edge="1" parent="WIyWlLk6GJQsqaUBKTNV-1" source="7zjRcnEj8naGAS1KM2nz-99" target="7zjRcnEj8naGAS1KM2nz-107">
          <mxGeometry relative="1" as="geometry">
            <mxPoint x="-522" y="1310" as="sourcePoint" />
            <mxPoint x="-522" y="1400" as="targetPoint" />
          </mxGeometry>
        </mxCell>
      </root>
    </mxGraphModel>
  </diagram>
</mxfile>
